<svg xmlns="http://www.w3.org/2000/svg" xmlns:xlink="http://www.w3.org/1999/xlink" width="2000" zoomAndPan="magnify" viewBox="0 0 1500 1499.999933" height="2000" preserveAspectRatio="xMidYMid meet" version="1.0"><defs><g/><clipPath id="022f4c5954"><path d="M 34.484375 554.167969 L 489.734375 554.167969 L 489.734375 910.417969 L 34.484375 910.417969 Z M 34.484375 554.167969 " clip-rule="nonzero"/></clipPath><clipPath id="e857f15398"><path d="M 0.589844 68 L 455.734375 68 L 455.734375 356.417969 L 0.589844 356.417969 Z M 0.589844 68 " clip-rule="nonzero"/></clipPath><clipPath id="bd252ca3d3"><path d="M 206 0.167969 L 286 0.167969 L 286 79 L 206 79 Z M 206 0.167969 " clip-rule="nonzero"/></clipPath><clipPath id="ffe82e48ac"><rect x="0" width="456" y="0" height="357"/></clipPath></defs><g clip-path="url(#022f4c5954)"><g transform="matrix(1, 0, 0, 1, 34, 554)"><g clip-path="url(#ffe82e48ac)"><path fill="#aefe02" d="M 232.34375 191.457031 C 243.976562 196.738281 258.65625 203.511719 277.058594 212.164062 C 351.300781 247.070312 306.453125 321.023438 186.683594 345.808594 C 186.683594 345.808594 381.777344 250.699219 209.9375 229.769531 C 212.105469 226.058594 214.265625 222.296875 216.453125 218.484375 C 221.550781 209.628906 226.703125 200.660156 232.34375 191.457031 " fill-opacity="1" fill-rule="nonzero"/><g clip-path="url(#e857f15398)"><path fill="#aefe02" d="M 178.59375 174.800781 C 226.722656 60.273438 382.675781 39.167969 455.707031 107.609375 C 455.707031 107.609375 342.035156 31.546875 257.679688 134.28125 C 173.324219 237.015625 200.1875 304.207031 0.667969 356.464844 C 0.667969 356.464844 116.886719 321.628906 178.59375 174.800781 " fill-opacity="1" fill-rule="nonzero"/></g><g clip-path="url(#bd252ca3d3)"><path fill="#aefe02" d="M 206.785156 39.566406 C 206.785156 61.320312 224.421875 78.953125 246.175781 78.953125 C 267.929688 78.953125 285.5625 61.320312 285.5625 39.566406 C 285.5625 17.8125 267.929688 0.179688 246.175781 0.179688 C 224.421875 0.179688 206.785156 17.8125 206.785156 39.566406 " fill-opacity="1" fill-rule="nonzero"/></g></g></g></g><g fill="#ffffff" fill-opacity="1"><g transform="translate(378.994484, 820.870397)"><g><path d="M 33.125 0 L 8.3125 0 L 8.3125 -105.765625 L 80.53125 -105.765625 L 80.53125 -83.578125 L 33.125 -83.578125 L 33.125 -63.90625 L 75.953125 -63.90625 L 75.953125 -41.859375 L 33.125 -41.859375 Z M 33.125 0 "/></g></g></g><g fill="#ffffff" fill-opacity="1"><g transform="translate(476.014213, 820.870397)"><g><path d="M 33.125 0 L 8.3125 0 L 8.3125 -105.765625 L 33.125 -105.765625 Z M 33.125 0 "/></g></g></g><g fill="#ffffff" fill-opacity="1"><g transform="translate(530.62308, 820.870397)"><g><path d="M 55.71875 0 L 30.90625 0 L 30.90625 -83.578125 L 1.109375 -83.578125 L 1.109375 -105.765625 L 85.515625 -105.765625 L 85.515625 -83.578125 L 55.71875 -83.578125 Z M 55.71875 0 "/></g></g></g><g fill="#ffffff" fill-opacity="1"><g transform="translate(624.038836, 820.870397)"><g><path d="M 48.921875 -34.234375 L 3.609375 -34.234375 L 3.609375 -54.0625 L 48.921875 -54.0625 Z M 48.921875 -34.234375 "/></g></g></g><g fill="#aefe02" fill-opacity="1"><g transform="translate(689.59993, 820.870397)"><g><path d="M 55.71875 0 L 30.90625 0 L 30.90625 -83.578125 L 1.109375 -83.578125 L 1.109375 -105.765625 L 85.515625 -105.765625 L 85.515625 -83.578125 L 55.71875 -83.578125 Z M 55.71875 0 "/></g></g></g><g fill="#aefe02" fill-opacity="1"><g transform="translate(789.253013, 820.870397)"><g><path d="M 76.515625 -45.328125 L 94.8125 0 L 68.609375 0 L 53.21875 -40.75 L 33.125 -40.75 L 33.125 0 L 8.3125 0 L 8.3125 -105.765625 L 58.21875 -105.765625 C 64.6875 -105.765625 70.4375 -104.703125 75.46875 -102.578125 C 80.507812 -100.453125 84.460938 -97.054688 87.328125 -92.390625 C 90.191406 -87.722656 91.625 -81.550781 91.625 -73.875 C 91.625 -67.132812 90.257812 -61.359375 87.53125 -56.546875 C 84.800781 -51.742188 81.128906 -48.003906 76.515625 -45.328125 Z M 54.75 -83.578125 L 33.125 -83.578125 L 33.125 -62.234375 L 54.75 -62.234375 C 62.976562 -62.234375 67.09375 -65.835938 67.09375 -73.046875 C 67.09375 -80.066406 62.976562 -83.578125 54.75 -83.578125 Z M 54.75 -83.578125 "/></g></g></g><g fill="#aefe02" fill-opacity="1"><g transform="translate(900.409695, 820.870397)"><g><path d="M 26.609375 0 L 0.28125 0 L 36.453125 -105.765625 L 63.34375 -105.765625 L 99.515625 0 L 73.1875 0 L 67.5 -18.984375 L 32.296875 -18.984375 Z M 49.90625 -78.171875 L 38.8125 -40.46875 L 60.984375 -40.46875 Z M 49.90625 -78.171875 "/></g></g></g><g fill="#aefe02" fill-opacity="1"><g transform="translate(1013.229571, 820.870397)"><g><path d="M 33.125 0 L 8.3125 0 L 8.3125 -105.765625 L 33.125 -105.765625 Z M 33.125 0 "/></g></g></g><g fill="#aefe02" fill-opacity="1"><g transform="translate(1067.838438, 820.870397)"><g><path d="M 33.125 0 L 8.3125 0 L 8.3125 -105.765625 L 33.546875 -105.765625 L 74.15625 -41.578125 L 74.15625 -105.765625 L 98.96875 -105.765625 L 98.96875 0 L 73.734375 0 L 33.125 -64.59375 Z M 33.125 0 "/></g></g></g><g fill="#aefe02" fill-opacity="1"><g transform="translate(1188.142566, 820.870397)"><g><path d="M 33.125 0 L 8.3125 0 L 8.3125 -105.765625 L 33.125 -105.765625 Z M 33.125 0 "/></g></g></g><g fill="#aefe02" fill-opacity="1"><g transform="translate(1242.751434, 820.870397)"><g><path d="M 33.125 0 L 8.3125 0 L 8.3125 -105.765625 L 33.546875 -105.765625 L 74.15625 -41.578125 L 74.15625 -105.765625 L 98.96875 -105.765625 L 98.96875 0 L 73.734375 0 L 33.125 -64.59375 Z M 33.125 0 "/></g></g></g><g fill="#aefe02" fill-opacity="1"><g transform="translate(1363.055562, 820.870397)"><g><path d="M 57.109375 2.359375 C 48.046875 2.359375 40.1875 0.878906 33.53125 -2.078125 C 26.882812 -5.035156 21.410156 -9.078125 17.109375 -14.203125 C 12.816406 -19.335938 9.609375 -25.226562 7.484375 -31.875 C 5.359375 -38.53125 4.296875 -45.554688 4.296875 -52.953125 C 4.296875 -60.335938 5.359375 -67.332031 7.484375 -73.9375 C 9.609375 -80.550781 12.816406 -86.421875 17.109375 -91.546875 C 21.410156 -96.679688 26.882812 -100.703125 33.53125 -103.609375 C 40.1875 -106.523438 48.046875 -107.984375 57.109375 -107.984375 C 72.078125 -107.984375 83.765625 -104.515625 92.171875 -97.578125 C 100.578125 -90.648438 105.660156 -81.457031 107.421875 -70 L 80.25 -70 C 77.757812 -80.53125 70.046875 -85.796875 57.109375 -85.796875 C 48.785156 -85.796875 42.269531 -82.816406 37.5625 -76.859375 C 32.851562 -70.898438 30.5 -62.929688 30.5 -52.953125 C 30.5 -42.878906 32.96875 -34.835938 37.90625 -28.828125 C 42.851562 -22.828125 50.175781 -19.828125 59.875 -19.828125 C 66.894531 -19.828125 72.414062 -21.347656 76.4375 -24.390625 C 80.457031 -27.441406 82.65625 -32.34375 83.03125 -39.09375 L 60.984375 -39.09375 L 60.984375 -59.046875 L 107.84375 -59.046875 L 107.84375 0 L 85.25 0 L 85.25 -9.84375 C 82.84375 -6.507812 80.066406 -3.960938 76.921875 -2.203125 C 73.785156 -0.453125 70.503906 0.742188 67.078125 1.390625 C 63.660156 2.035156 60.335938 2.359375 57.109375 2.359375 Z M 57.109375 2.359375 "/></g></g></g></svg>